<?xml version="1.0" encoding="utf-8"?>
<!-- Generator: Adobe Illustrator 16.0.0, SVG Export Plug-In . SVG Version: 6.00 Build 0)  -->
<!DOCTYPE svg PUBLIC "-//W3C//DTD SVG 1.1//EN" "http://www.w3.org/Graphics/SVG/1.1/DTD/svg11.dtd">
<svg version="1.1" id="Layer_1" xmlns="http://www.w3.org/2000/svg" xmlns:xlink="http://www.w3.org/1999/xlink" x="0px" y="0px"
	 width="275px" height="64px" viewBox="-125 -19.5 275 64" enable-background="new -125 -19.5 275 64" xml:space="preserve">
<path fill="#F08F98" d="M22.756,2.67C21.412,1.212,19.58,0.357,17.6,0.259C15.723,0.17,13.965,0.7,12.5,1.792
	C11.144,0.778,9.535,0.25,7.816,0.25c-0.14,0-0.276,0.003-0.417,0.01c-2.095,0.1-3.986,1.002-5.323,2.533
	C0.737,4.33,0,6.442,0,8.747c0,2.337,1.086,5.157,3.228,8.384c1.546,2.328,3.476,4.594,4.924,5.768
	c1.051,0.857,2.364,1.746,4.104,1.847c0.096,0.004,0.189,0.006,0.284,0.006c2.019,0,3.497-1.192,4.296-1.838l0.012-0.015
	c1.445-1.174,3.379-3.438,4.924-5.768c2.145-3.229,3.229-6.047,3.229-8.384C24.999,6.392,24.204,4.231,22.756,2.67z"/>
</svg>
