<?xml version="1.0" encoding="utf-8"?>
<!-- Generator: Adobe Illustrator 16.0.0, SVG Export Plug-In . SVG Version: 6.00 Build 0)  -->
<!DOCTYPE svg PUBLIC "-//W3C//DTD SVG 1.1//EN" "http://www.w3.org/Graphics/SVG/1.1/DTD/svg11.dtd">
<svg version="1.1" id="Layer_1" xmlns="http://www.w3.org/2000/svg" xmlns:xlink="http://www.w3.org/1999/xlink" x="0px" y="0px"
	 width="275px" height="64px" viewBox="-125 -19.5 275 64" enable-background="new -125 -19.5 275 64" xml:space="preserve">
<g>
	<path fill="#F19DB1" d="M22.754,2.669c-1.344-1.458-3.175-2.313-5.152-2.408c-1.879-0.09-3.637,0.44-5.102,1.532
		C11.144,0.783,9.535,0.25,7.815,0.25c-0.14,0-0.276,0.002-0.417,0.01c-2.095,0.1-3.985,1.003-5.32,2.534
		C0.736,4.327,0,6.441,0,8.746c0,2.334,1.085,5.156,3.228,8.38c1.543,2.33,3.475,4.595,4.925,5.765
		c1.051,0.858,2.364,1.741,4.105,1.846c0.095,0.005,0.188,0.009,0.282,0.009c2.019,0,3.501-1.196,4.298-1.841l0.014-0.014
		c1.444-1.175,3.373-3.434,4.922-5.765C23.912,13.9,25,11.079,25,8.746C24.999,6.393,24.201,4.235,22.754,2.669L22.754,2.669z
		 M19.445,15.248c-1.363,2.052-3.092,4.098-4.305,5.077l-0.005,0.005l-0.005,0.005c-0.607,0.497-1.514,1.228-2.593,1.228
		c-0.044,0-0.093,0-0.139-0.004c-0.976-0.055-1.8-0.621-2.544-1.229c-1.208-0.983-2.939-3.024-4.302-5.08
		c-1.217-1.836-2.668-4.455-2.668-6.499c0-1.571,0.479-2.906,1.382-3.863c0.834-0.878,1.958-1.374,3.259-1.44
		c1.711-0.083,3.206,0.579,4.326,1.909c0.257,0.309,0.472,0.624,0.65,0.923c0.176-0.3,0.39-0.614,0.652-0.922
		c1.119-1.333,2.609-1.992,4.326-1.909c1.27,0.063,2.424,0.594,3.261,1.502c0.899,0.972,1.373,2.286,1.373,3.799
		C22.114,10.794,20.659,13.413,19.445,15.248L19.445,15.248z"/>
	<path fill="#F08F98" d="M22.754,2.669c-1.344-1.458-3.175-2.313-5.152-2.408c-1.879-0.09-3.637,0.44-5.102,1.532v4.486
		c0.175-0.3,0.39-0.614,0.652-0.922c1.115-1.333,2.608-1.992,4.32-1.909c1.272,0.063,2.428,0.594,3.269,1.502
		c0.899,0.974,1.373,2.285,1.373,3.799c0,2.044-1.45,4.66-2.671,6.493c-1.362,2.06-3.092,4.099-4.303,5.082l-0.007,0.005
		l-0.006,0.005c-0.606,0.492-1.511,1.227-2.592,1.227c-0.013,0-0.03-0.002-0.038-0.002v3.19c0.012,0,0.026,0,0.038,0
		c2.022,0,3.502-1.192,4.298-1.841l0.014-0.01c1.447-1.176,3.375-3.438,4.924-5.768C23.916,13.902,25,11.081,25,8.746
		C24.999,6.393,24.201,4.235,22.754,2.669L22.754,2.669z"/>
</g>
</svg>
