<?xml version="1.0" encoding="utf-8"?>
<!-- Generator: Adobe Illustrator 16.0.0, SVG Export Plug-In . SVG Version: 6.00 Build 0)  -->
<!DOCTYPE svg PUBLIC "-//W3C//DTD SVG 1.1//EN" "http://www.w3.org/Graphics/SVG/1.1/DTD/svg11.dtd">
<svg version="1.1" id="Layer_1" xmlns="http://www.w3.org/2000/svg" xmlns:xlink="http://www.w3.org/1999/xlink" x="0px" y="0px"
	 width="25px" height="25px" viewBox="-2.5 -2.5 25 25" enable-background="new -2.5 -2.5 25 25" xml:space="preserve">
<g>
	<path fill="#F19DB1" d="M20.254,0.169c-1.344-1.458-3.175-2.313-5.152-2.408C13.223-2.329,11.465-1.799,10-0.707
		C8.644-1.717,7.035-2.25,5.315-2.25c-0.14,0-0.276,0.002-0.417,0.01C2.803-2.14,0.913-1.237-0.422,0.294
		C-1.764,1.827-2.5,3.941-2.5,6.246c0,2.334,1.085,5.157,3.228,8.38c1.543,2.33,3.475,4.594,4.925,5.764
		c1.051,0.859,2.364,1.742,4.105,1.846c0.095,0.005,0.188,0.009,0.282,0.009c2.019,0,3.501-1.196,4.298-1.84l0.013-0.015
		c1.445-1.174,3.374-3.433,4.923-5.764C21.412,11.4,22.5,8.579,22.5,6.246C22.499,3.893,21.701,1.735,20.254,0.169L20.254,0.169z
		 M16.945,12.748c-1.363,2.052-3.092,4.098-4.304,5.077l-0.005,0.005l-0.005,0.005c-0.608,0.497-1.514,1.228-2.593,1.228
		c-0.044,0-0.093-0.001-0.139-0.005c-0.976-0.054-1.8-0.621-2.544-1.229c-1.208-0.984-2.939-3.025-4.302-5.08
		C1.836,10.913,0.385,8.294,0.385,6.25c0-1.571,0.479-2.906,1.382-3.863c0.834-0.878,1.958-1.374,3.259-1.44
		c1.711-0.083,3.206,0.579,4.326,1.909c0.257,0.309,0.472,0.624,0.65,0.923c0.176-0.3,0.39-0.614,0.652-0.922
		c1.119-1.333,2.609-1.992,4.326-1.909c1.27,0.063,2.424,0.594,3.261,1.502c0.899,0.972,1.373,2.286,1.373,3.799
		C19.614,8.294,18.159,10.913,16.945,12.748L16.945,12.748z"/>
	<path fill="#F08F98" d="M20.254,0.169c-1.344-1.458-3.175-2.313-5.152-2.408C13.223-2.329,11.465-1.799,10-0.707v4.486
		c0.175-0.3,0.39-0.614,0.652-0.922c1.115-1.333,2.609-1.992,4.32-1.909c1.273,0.063,2.429,0.594,3.269,1.502
		c0.899,0.974,1.373,2.285,1.373,3.799c0,2.044-1.45,4.66-2.671,6.493c-1.362,2.06-3.091,4.099-4.302,5.082l-0.007,0.005
		l-0.006,0.005c-0.606,0.492-1.511,1.227-2.592,1.227c-0.013,0-0.03-0.002-0.038-0.002v3.19c0.012,0,0.026,0,0.038,0
		c2.023,0,3.502-1.193,4.298-1.841l0.013-0.01c1.448-1.175,3.375-3.437,4.924-5.767c2.145-3.229,3.229-6.05,3.229-8.385
		C22.499,3.893,21.701,1.735,20.254,0.169L20.254,0.169z"/>
</g>
</svg>
