<?xml version="1.0" encoding="utf-8"?>
<!-- Generator: Adobe Illustrator 16.0.0, SVG Export Plug-In . SVG Version: 6.00 Build 0)  -->
<!DOCTYPE svg PUBLIC "-//W3C//DTD SVG 1.1//EN" "http://www.w3.org/Graphics/SVG/1.1/DTD/svg11.dtd">
<svg version="1.1" id="Layer_1" xmlns="http://www.w3.org/2000/svg" xmlns:xlink="http://www.w3.org/1999/xlink" x="0px" y="0px"
	 width="20px" height="24px" viewBox="0 0 20 24" enable-background="new 0 0 20 24" xml:space="preserve">
<g>
	<path d="M11.87,11.343L2.292,0.309c-0.378-0.438-1.153-0.406-1.731,0.07c-0.576,0.476-0.735,1.214-0.356,1.652L8.858,12
		l-8.652,9.969c-0.379,0.438-0.22,1.176,0.356,1.652c0.578,0.475,1.353,0.508,1.731,0.07l9.578-11.034
		c0.156-0.18,0.199-0.414,0.18-0.658C12.069,11.758,12.026,11.522,11.87,11.343z"/>
	<path d="M19.813,11.343L10.238,0.309c-0.38-0.438-1.154-0.406-1.731,0.07C7.932,0.855,7.772,1.593,8.151,2.031L16.802,12
		l-8.65,9.969c-0.379,0.438-0.22,1.176,0.356,1.652c0.577,0.475,1.351,0.508,1.731,0.07l9.575-11.034
		c0.156-0.18,0.201-0.414,0.182-0.658C20.015,11.758,19.97,11.522,19.813,11.343z"/>
</g>
</svg>
