<?xml version="1.0" encoding="utf-8"?>
<!-- Generator: Adobe Illustrator 16.0.0, SVG Export Plug-In . SVG Version: 6.00 Build 0)  -->
<!DOCTYPE svg PUBLIC "-//W3C//DTD SVG 1.1//EN" "http://www.w3.org/Graphics/SVG/1.1/DTD/svg11.dtd">
<svg version="1.1" id="Layer_1" xmlns="http://www.w3.org/2000/svg" xmlns:xlink="http://www.w3.org/1999/xlink" x="0px" y="0px"
	 width="20px" height="24px" viewBox="0 0 20 24" enable-background="new 0 0 20 24" xml:space="preserve">
<g>
	<path d="M8.13,11.343L17.707,0.31c0.379-0.438,1.154-0.406,1.731,0.07c0.575,0.476,0.735,1.214,0.356,1.652L11.143,12l8.652,9.969
		c0.379,0.438,0.219,1.176-0.356,1.652c-0.577,0.475-1.353,0.508-1.731,0.07L8.13,12.658C7.974,12.478,7.931,12.244,7.95,12
		C7.931,11.758,7.974,11.523,8.13,11.343z"/>
	<path d="M0.187,11.343L9.762,0.31c0.38-0.438,1.154-0.406,1.73,0.07c0.576,0.476,0.736,1.214,0.356,1.652L3.198,12l8.65,9.969
		c0.38,0.438,0.22,1.176-0.356,1.652c-0.576,0.475-1.351,0.508-1.73,0.07L0.187,12.658C0.03,12.478-0.015,12.244,0.005,12
		C-0.015,11.758,0.03,11.523,0.187,11.343z"/>
</g>
</svg>
