<?xml version="1.0" encoding="utf-8"?>
<!-- Generator: Adobe Illustrator 16.0.0, SVG Export Plug-In . SVG Version: 6.00 Build 0)  -->
<!DOCTYPE svg PUBLIC "-//W3C//DTD SVG 1.1//EN" "http://www.w3.org/Graphics/SVG/1.1/DTD/svg11.dtd">
<svg version="1.1" id="Layer_1" xmlns="http://www.w3.org/2000/svg" xmlns:xlink="http://www.w3.org/1999/xlink" x="0px" y="0px"
	 width="25px" height="25px" viewBox="-2.5 -2.5 25 25" enable-background="new -2.5 -2.5 25 25" xml:space="preserve">
<path fill="#F08F98" d="M20.256,0.171C18.912-1.287,17.08-2.142,15.1-2.24c-1.877-0.089-3.635,0.441-5.1,1.533
	C8.644-1.721,7.035-2.25,5.316-2.25c-0.14,0-0.276,0.003-0.417,0.01C2.804-2.139,0.913-1.238-0.424,0.294
	C-1.763,1.83-2.5,3.943-2.5,6.247c0,2.337,1.086,5.157,3.228,8.384c1.546,2.328,3.476,4.594,4.924,5.767
	c1.051,0.859,2.364,1.747,4.104,1.846c0.096,0.005,0.189,0.007,0.284,0.007c2.019,0,3.497-1.195,4.296-1.838l0.012-0.015
	c1.445-1.173,3.379-3.438,4.924-5.767c2.143-3.228,3.229-6.047,3.229-8.384C22.499,3.892,21.704,1.732,20.256,0.171z"/>
</svg>
